<?xml version="1.0" standalone="no"?>
<!DOCTYPE svg PUBLIC "-//W3C//DTD SVG 20010904//EN"
 "http://www.w3.org/TR/2001/REC-SVG-20010904/DTD/svg10.dtd">
<svg version="1.0" xmlns="http://www.w3.org/2000/svg"
 width="2245.000000pt" height="1587.000000pt" viewBox="0 0 2245.000000 1587.000000"
 preserveAspectRatio="xMidYMid meet">

<g transform="translate(0.000000,1587.000000) scale(0.100000,-0.100000)"
fill="#000000" stroke="none">
<path d="M7545 13183 c-187 -25 -472 -138 -739 -292 l-109 -63 -156 41 c-510
132 -887 192 -1343 213 -459 22 -919 -16 -1323 -108 -252 -58 -593 -168 -772
-250 -17 -8 -34 -14 -37 -14 -4 0 -91 -41 -194 -91 -414 -202 -838 -493 -1158
-795 -567 -534 -978 -1222 -1164 -1949 -38 -149 -52 -218 -87 -430 -26 -160
-26 -726 0 -900 123 -826 508 -1481 1167 -1984 155 -119 463 -304 540 -325 14
-4 -18 16 -70 45 -404 220 -785 554 -1042 914 -330 461 -508 975 -538 1549
-31 595 85 1160 356 1733 146 310 377 664 602 924 179 207 498 500 692 634 30
21 98 68 150 105 52 37 140 93 195 125 55 33 114 67 130 77 83 50 436 220 550
265 345 136 691 227 1050 277 229 32 372 38 738 33 311 -4 390 -8 557 -30 223
-29 371 -55 567 -98 209 -47 253 -57 318 -77 l59 -18 -69 -49 c-1072 -751
-2106 -1831 -2450 -2558 -82 -174 -107 -261 -113 -399 -9 -226 35 -351 147
-420 25 -16 55 -22 125 -26 245 -13 531 133 872 445 129 118 352 359 374 404
13 29 13 32 -5 45 -27 20 -112 17 -191 -7 -69 -21 -70 -23 -299 -248 -315
-312 -461 -429 -622 -503 -119 -54 -215 -32 -255 59 -28 63 -21 185 17 298
215 651 1321 1920 2330 2675 94 69 205 150 248 179 76 51 78 52 120 41 155
-41 878 -308 904 -333 5 -5 -49 -153 -127 -347 -353 -882 -889 -1799 -1426
-2440 -67 -80 -197 -228 -290 -330 -912 -1001 -1773 -2102 -2560 -3272 -200
-297 -206 -312 -238 -554 -5 -39 -4 -41 34 -63 76 -43 140 -26 209 56 22 27
165 203 317 393 513 637 868 1074 943 1160 229 262 339 345 491 369 66 11 435
39 865 66 1070 66 1712 37 2448 -112 212 -43 307 -46 431 -13 126 32 160 67
94 94 -39 16 -429 93 -683 135 -707 117 -1201 151 -2182 151 -364 0 -463 3
-463 13 0 22 166 130 750 487 941 575 1563 973 2092 1335 688 471 1263 904
1706 1284 84 72 157 131 163 131 8 0 145 -95 514 -355 147 -104 535 -393 830
-620 295 -226 318 -244 620 -480 1134 -887 1885 -1425 2620 -1874 30 -18 52
-37 50 -42 -15 -23 -473 -270 -745 -402 -447 -217 -804 -351 -1220 -460 -801
-209 -1669 -223 -2440 -38 -106 26 -136 26 -50 0 252 -74 605 -136 910 -159
286 -21 710 -11 995 25 566 72 1201 254 1720 495 22 10 63 28 90 40 103 46
385 185 510 253 72 38 159 85 195 104 36 20 84 46 107 60 l42 25 168 -95 c495
-279 875 -464 1341 -653 662 -269 1290 -431 2012 -518 838 -102 1667 28 2349
368 631 314 1033 750 1166 1266 122 468 1 943 -332 1314 -221 246 -546 449
-860 536 -293 82 -472 105 -808 105 -397 0 -705 -44 -1174 -166 -484 -126
-1143 -400 -1638 -681 -57 -32 -105 -58 -107 -58 -9 0 -473 -274 -686 -406
-210 -130 -979 -613 -1055 -663 -84 -55 -251 -151 -263 -151 -15 0 -122 64
-445 266 -99 62 -539 353 -632 419 -38 27 -92 64 -120 84 -365 253 -1052 766
-1610 1201 -679 529 -1196 914 -1697 1264 -109 76 -198 140 -198 142 0 2 92
95 203 207 417 414 658 729 828 1082 175 361 179 540 19 689 -116 107 -254
146 -450 127 -467 -44 -1141 -399 -2098 -1104 l-63 -46 -112 60 c-62 33 -236
121 -387 196 -151 74 -276 137 -278 138 -2 2 17 66 42 142 25 77 50 173 57
214 39 250 -83 434 -320 485 -62 13 -178 16 -246 7z m199 -114 c53 -24 62
-113 26 -264 -29 -125 -81 -308 -89 -318 -7 -7 -48 6 -106 33 -72 34 -410 159
-586 217 -47 15 -87 32 -90 37 -6 13 236 138 384 197 227 91 396 127 461 98z
m3444 -124 c43 -20 56 -32 72 -67 25 -56 25 -140 0 -244 -24 -103 -52 -165
-125 -284 -190 -306 -508 -652 -1037 -1128 l-48 -42 -97 65 c-54 35 -206 131
-338 213 -204 127 -311 191 -597 357 l-37 21 92 69 c251 189 612 442 884 623
245 162 494 286 739 368 171 57 240 72 349 73 76 1 98 -3 143 -24z m-3016
-905 c309 -152 433 -217 433 -229 0 -6 -112 -99 -250 -208 -272 -216 -590
-478 -810 -667 -77 -67 -148 -127 -158 -135 -23 -19 -67 -6 -67 19 0 11 76
172 169 358 229 457 314 642 435 935 8 20 17 37 20 37 3 0 106 -49 228 -110z
m777 -412 c236 -134 562 -334 830 -508 l114 -74 -39 -34 c-67 -59 -392 -322
-559 -453 -421 -329 -845 -638 -1520 -1104 -589 -408 -1649 -1084 -2195 -1400
-421 -244 -447 -256 -444 -214 1 18 695 883 986 1230 700 836 1338 1488 2099
2146 203 176 580 483 593 483 5 0 65 -32 135 -72z m11356 -2079 c327 -42 576
-122 811 -262 294 -176 537 -451 639 -721 60 -163 69 -217 69 -421 0 -203 -9
-257 -70 -429 -260 -726 -1219 -1286 -2374 -1386 -149 -13 -562 -13 -710 0
-407 36 -922 132 -1315 245 -137 39 -525 168 -585 193 -14 6 -110 45 -215 86
-104 41 -228 92 -275 114 -47 22 -137 63 -200 92 -274 123 -915 464 -904 481
2 4 44 31 92 60 126 75 702 428 732 448 14 10 50 32 80 50 30 17 75 45 100 60
1204 750 2042 1131 2880 1310 205 44 244 50 575 90 144 17 499 12 670 -10z"/>
<path d="M10218 6613 c6 -2 18 -2 25 0 6 3 1 5 -13 5 -14 0 -19 -2 -12 -5z"/>
<path d="M10260 6606 c0 -2 7 -7 16 -10 8 -3 12 -2 9 4 -6 10 -25 14 -25 6z"/>
<path d="M7370 4335 c-156 -35 -285 -137 -358 -282 -91 -183 -81 -441 23 -600
103 -156 254 -233 460 -233 157 0 291 50 394 147 51 49 54 54 39 69 -15 15
-20 13 -69 -26 -174 -138 -373 -158 -534 -56 -28 18 -64 48 -79 67 -122 143
-142 474 -41 669 27 53 105 130 160 158 66 34 195 42 277 18 95 -27 184 -123
224 -240 12 -35 21 -46 36 -46 20 0 21 4 15 98 -4 53 -7 136 -7 185 0 73 -3
87 -16 87 -9 0 -25 -11 -36 -25 -24 -31 -56 -32 -158 -4 -100 27 -246 33 -330
14z"/>
<path d="M16123 4336 c-185 -43 -339 -197 -388 -391 -19 -76 -19 -241 0 -323
23 -97 70 -179 144 -252 108 -107 214 -150 366 -150 274 1 481 167 530 425 60
310 -78 584 -341 676 -77 27 -226 34 -311 15z m259 -75 c149 -72 227 -257 215
-515 -10 -239 -95 -403 -234 -450 -54 -19 -160 -21 -213 -5 -150 45 -246 241
-244 499 2 267 92 435 264 491 45 15 164 4 212 -20z"/>
<path d="M17710 4335 c-269 -61 -448 -316 -426 -606 20 -260 175 -437 432
-495 149 -33 392 0 519 69 l40 22 5 205 c3 113 9 213 14 223 5 10 28 23 52 29
24 7 44 18 44 25 0 10 -44 13 -205 13 -168 0 -205 -2 -205 -14 0 -9 16 -16 45
-20 24 -4 54 -15 67 -26 22 -18 23 -25 26 -195 2 -97 1 -188 -3 -202 -8 -33
-90 -70 -175 -78 -182 -18 -339 68 -416 228 -106 221 -46 578 117 697 75 54
142 72 249 68 76 -3 105 -9 144 -28 59 -30 114 -92 162 -182 50 -96 64 -91 64
25 0 50 -3 129 -7 175 -7 90 -19 103 -55 57 -24 -31 -56 -32 -158 -4 -100 27
-246 33 -330 14z"/>
<path d="M4066 4321 c-12 -18 1 -28 46 -34 29 -4 50 -14 65 -32 l23 -26 0
-433 c0 -277 -4 -444 -10 -463 -12 -32 -36 -48 -94 -58 -21 -4 -36 -13 -36
-21 0 -12 40 -14 230 -14 193 0 230 2 230 14 0 10 -16 17 -46 22 -25 3 -58 17
-72 29 l-27 23 -3 206 -3 206 30 0 c16 0 36 3 44 6 10 4 74 -71 212 -250 l198
-256 133 0 c107 0 134 3 134 14 0 8 -18 18 -42 24 -30 8 -57 26 -89 59 -51 53
-349 418 -349 427 0 3 8 6 18 6 47 0 144 44 191 86 64 58 85 110 79 202 -7
127 -83 207 -236 248 -54 14 -119 18 -343 22 -195 3 -279 1 -283 -7z m529 -73
c104 -25 155 -94 155 -208 0 -112 -42 -173 -138 -204 -40 -13 -187 -36 -229
-36 -10 0 -13 48 -13 219 0 229 1 232 45 244 25 7 128 -2 180 -15z"/>
<path d="M5535 4320 c-10 -16 4 -30 31 -30 14 0 40 -6 59 -14 26 -11 36 -23
44 -53 15 -51 15 -824 0 -876 -12 -43 -37 -62 -96 -72 -27 -4 -43 -12 -43 -21
0 -12 66 -14 447 -12 l446 3 33 125 c39 147 40 150 15 150 -13 0 -29 -18 -50
-54 -75 -134 -137 -160 -378 -161 -143 0 -164 2 -180 18 -16 16 -18 40 -18
235 l0 217 172 0 c204 0 216 -5 247 -98 14 -43 23 -57 37 -57 18 0 19 11 19
190 0 181 -1 190 -19 190 -15 0 -23 -13 -35 -53 -9 -30 -24 -61 -34 -70 -29
-26 -117 -38 -258 -35 l-129 3 0 190 c0 105 3 198 7 208 7 15 25 17 190 17
101 0 200 -5 220 -10 46 -13 81 -54 98 -114 9 -34 18 -46 32 -46 17 0 18 8 16
118 l-3 117 -432 3 c-283 1 -434 -1 -438 -8z"/>
<path d="M8412 4313 c2 -13 18 -20 58 -26 101 -14 95 18 98 -487 3 -507 4
-500 -71 -519 -25 -6 -55 -11 -66 -11 -12 0 -21 -7 -21 -15 0 -13 34 -15 245
-15 204 0 245 2 245 14 0 9 -17 16 -51 21 -30 4 -61 16 -77 30 l-27 23 0 456
c0 451 0 456 21 477 14 13 40 23 75 27 40 5 55 11 57 25 3 16 -14 17 -243 17
-229 0 -246 -1 -243 -17z"/>
<path d="M9340 4310 c0 -14 7 -20 24 -20 38 0 86 -21 99 -44 14 -24 24 -741
12 -855 -8 -76 -31 -105 -93 -115 -27 -4 -42 -11 -42 -21 0 -13 33 -15 230
-15 191 0 230 2 230 14 0 9 -17 17 -52 21 -98 14 -112 55 -106 309 l3 129 125
2 c209 5 329 57 397 172 21 36 27 63 31 124 4 70 2 84 -22 133 -33 67 -82 108
-168 140 -94 36 -193 46 -444 46 -217 0 -224 -1 -224 -20z m445 -50 c99 -15
167 -49 202 -101 26 -39 28 -50 28 -140 0 -92 -2 -100 -30 -140 -18 -26 -50
-53 -79 -68 -43 -22 -62 -25 -155 -26 l-106 0 -3 222 c-2 212 -1 224 18 243
23 23 29 23 125 10z"/>
<path d="M10632 4313 c2 -12 17 -20 48 -25 24 -4 53 -17 65 -28 19 -20 20 -33
23 -462 2 -305 -1 -451 -8 -469 -12 -29 -39 -44 -94 -54 -21 -4 -36 -13 -36
-21 0 -12 72 -14 443 -14 l444 0 33 128 c18 70 35 133 38 140 2 7 -5 12 -20
12 -18 0 -29 -10 -45 -44 -29 -59 -78 -113 -124 -136 -55 -29 -166 -42 -306
-38 -109 3 -126 5 -139 22 -11 16 -14 65 -14 238 l0 218 140 0 c178 0 235 -11
260 -53 10 -17 22 -48 25 -69 5 -28 12 -38 26 -38 18 0 19 10 19 190 0 180 -1
190 -19 190 -14 0 -21 -10 -26 -37 -19 -104 -42 -115 -257 -121 l-168 -4 0
195 c0 107 3 202 6 211 5 14 32 16 193 16 255 0 276 -8 312 -112 13 -38 23
-53 36 -53 13 0 18 7 17 28 0 15 -1 68 -2 117 l-2 90 -436 0 c-407 0 -435 -1
-432 -17z"/>
<path d="M12822 4314 c2 -14 16 -21 49 -25 67 -10 87 -24 99 -70 7 -26 10
-182 8 -465 l-3 -426 -27 -23 c-16 -14 -47 -26 -77 -30 -34 -5 -51 -12 -51
-21 0 -20 585 -20 681 0 169 36 263 138 262 282 -1 134 -71 210 -248 269 -16
5 -10 10 31 24 72 26 101 48 130 96 69 118 23 284 -95 344 -90 46 -142 53
-459 58 -292 5 -304 5 -300 -13z m507 -54 c74 -12 125 -36 163 -77 36 -37 48
-73 48 -138 0 -90 -28 -138 -105 -178 -32 -17 -64 -22 -162 -25 l-123 -4 0
204 c0 145 3 207 12 216 15 15 82 15 167 2z m46 -501 c84 -15 131 -42 164 -95
36 -55 46 -118 31 -190 -23 -109 -106 -161 -277 -171 -76 -5 -97 -3 -118 11
l-25 16 0 224 0 224 83 -4 c45 -3 109 -10 142 -15z"/>
<path d="M14292 4313 c2 -10 14 -19 28 -21 14 -2 39 -8 56 -13 58 -18 59 -28
59 -504 0 -499 4 -475 -90 -496 -33 -7 -55 -17 -55 -26 0 -11 79 -13 443 -13
l442 0 39 140 c21 78 36 143 33 147 -13 13 -37 -8 -55 -49 -28 -64 -66 -104
-126 -132 -69 -33 -204 -50 -331 -43 -87 6 -102 9 -118 28 -17 21 -18 51 -15
458 2 329 6 441 16 458 12 21 58 40 112 45 14 2 25 9 25 18 0 13 -34 15 -233
18 -219 2 -233 1 -230 -15z"/>
</g>
</svg>
